<svg xmlns="http://www.w3.org/2000/svg" xmlns:xlink="http://www.w3.org/1999/xlink" id="Layer_1" x="0px" y="0px" viewBox="0 0 500 500" style="enable-background:new 0 0 500 500;" xml:space="preserve"><style type="text/css">	.st0{fill:#84CBF7;}	.st1{fill:#2B95D6;}</style><g>	<path class="st0" d="M323.5,323.9c-4.6-18.4-13-36.7-24-53.9c67.2-1.7,134-6.8,200.4-20.1c-66.5-13.3-133.3-18.3-200.5-20.1  c11-17.2,19.4-35.5,24-53.9c-18.3,4.7-36.4,13.2-53.5,24.2c-1.8-67.1-6.8-133.9-20-200.3c-13.2,66.4-18.2,133.2-20,200.3  c-17.1-11-35.2-19.5-53.5-24.2c4.6,18.4,13.1,36.7,24.1,53.9c-67.2,1.8-134,6.8-200.5,20c66.5,13.2,133.3,18.3,200.5,20  c-11,17.2-19.4,35.5-24,53.9c18.3-4.7,36.4-13.1,53.5-24.1c1.7,67.1,6.8,133.8,20,200.2c13.3-66.4,18.3-133.1,20-200.2  C287.1,310.9,305.2,319.3,323.5,323.9z"></path>	<path class="st1" d="M397.9,298.9c-7.6,23.1-11.9,49.2-13,75.7c-26.5,1.1-52.6,5.4-75.7,13c23.1,7.6,49.1,11.9,75.6,13  c1.1,26.5,5.4,52.6,13,75.7c7.6-23.1,11.9-49.1,13-75.6c26.5-1.1,52.6-5.4,75.6-13c-23.1-7.6-49.2-11.9-75.7-13  C409.7,348,405.4,322,397.9,298.9z"></path></g></svg>