<svg xmlns="http://www.w3.org/2000/svg" xmlns:xlink="http://www.w3.org/1999/xlink" id="Layer_1" x="0px" y="0px" viewBox="0 0 710.6 500" style="enable-background:new 0 0 710.6 500;" xml:space="preserve"><style type="text/css">	.st0{fill:#FFFFFF;}</style><g>	<g>		<path class="st0" d="M9.9,310.7c-2.7,0-5.1-0.9-7-2.8C1,305.9,0,303.6,0,300.9V118.3c0-2.8,1-5.2,2.9-7c1.9-1.8,4.3-2.8,7-2.8h0.8   h53.7c7.3,0,14.1,1.4,20.4,4.2c6.3,2.8,11.8,6.6,16.6,11.3c4.7,4.7,8.4,10.3,11.1,16.7c2.7,6.4,4,13.2,4,20.4   c0,8.6-1.9,16.6-5.8,23.8c-3.8,7.2-9,13.2-15.4,17.9c4.5,2.4,8.6,5.4,12.3,8.8c3.7,3.5,6.8,7.4,9.5,11.7c2.6,4.3,4.7,9,6.2,14.1   c1.5,5.1,2.2,10.4,2.2,15.9c0,8.2-1.6,15.8-4.7,22.8c-3.1,7-7.3,13.1-12.7,18.2c-5.4,5.1-11.7,9.1-18.9,12   c-7.3,2.9-15.1,4.3-23.4,4.3H9.9z M19.9,128.4v67.1H63c4.8,0,9.3-0.9,13.4-2.8c4.1-1.9,7.7-4.4,10.7-7.6c3-3.2,5.3-6.8,7-10.8   c1.7-4.1,2.5-8.2,2.5-12.6c0-4.3-0.8-8.5-2.5-12.5c-1.7-4-4-7.6-7-10.7c-3-3.1-6.5-5.6-10.5-7.4c-4-1.8-8.4-2.8-13.1-2.8H19.9z    M19.9,213.6v77.2h45.3c5.8,0,11.2-1.1,16.1-3.2c4.9-2.1,9.2-4.9,12.8-8.4c3.6-3.5,6.4-7.6,8.4-12.3c2.1-4.7,3.1-9.7,3.1-14.9   c0-5.4-1-10.4-3.1-15.1c-2.1-4.7-4.9-8.8-8.5-12.2c-3.6-3.5-7.9-6.2-12.9-8.1c-5-1.9-10.4-2.9-16.2-2.9H19.9z"></path>		<path class="st0" d="M172.9,188.3c7.2-8.1,15.7-14.5,25.7-19.3c10-4.7,20.8-7.1,32.4-7.1h0.3h0.9c3.4,0,5.9,0.9,7.7,2.8   c1.8,1.8,2.7,4.2,2.7,7c0,2.9-1,5.3-3,7.2c-2,1.8-4.5,2.8-7.4,2.8h-1.1H231c-7.9,0-15.4,1.5-22.4,4.6c-7.1,3.1-13.2,7.2-18.5,12.6   c-5.3,5.3-9.4,11.6-12.6,18.7c-3.1,7.2-4.7,14.8-4.7,23.1v60c0,2.8-0.9,5.2-2.8,7.2c-1.9,2-4.2,2.9-6.9,2.9c-2.7,0-5.1-1-7.1-2.9   c-2-1.9-3-4.3-3-7.2V171.9c0-2.7,1-5.1,3-7c2-1.9,4.4-2.9,7.1-2.9c2.8,0,5.2,1,7,2.9c1.8,2,2.8,4.3,2.8,7V188.3z"></path>		<path class="st0" d="M281.7,300.6c0,2.8-1,5.2-2.9,7.2c-2,2-4.3,2.9-7,2.9c-2.7,0-5.1-1-7-2.9c-2-1.9-2.9-4.3-2.9-7.2V171.9   c0-2.7,1-5.1,3-7c2-1.9,4.4-2.9,7.1-2.9c2.7,0,5.1,1,6.9,2.9c1.9,2,2.8,4.3,2.8,7V300.6z"></path>		<path class="st0" d="M454.6,293.1v0.9c-0.1,11.2-2.1,21.4-6.1,30.7c-3.9,9.3-9.3,17.3-16,24c-6.7,6.7-14.6,11.9-23.7,15.6   c-9.1,3.7-18.7,5.5-28.9,5.5c-9.6,0-18.8-1.7-27.8-5.2c-8.9-3.5-16.6-8.4-22.9-14.7c-2.4-2.4-3.6-5.1-3.6-8c0-2.9,1.1-5.3,3.3-7.3   c1.6-1.4,3.1-2.2,4.5-2.5c1.4-0.3,2.8-0.3,4.1,0c1.3,0.3,2.6,0.8,3.7,1.6c1.2,0.7,2.3,1.5,3.3,2.4c5.4,4.7,11.2,8.2,17.4,10.4   s12.8,3.3,19.7,3.2c7.4-0.1,14.3-1.6,20.8-4.4c6.5-2.8,12.1-6.8,16.9-11.8c4.8-5,8.6-10.9,11.3-17.8c2.7-6.8,4.1-14.4,4.1-22.6   v-4.7c-6.9,7.5-15.1,13.4-24.6,17.7c-9.4,4.3-19.7,6.5-30.7,6.5c-10.3,0-20.1-2-29.2-5.9c-9.2-3.9-17.2-9.3-24-16.1   c-6.8-6.8-12.2-14.8-16.2-23.9c-3.9-9.2-5.9-18.9-5.9-29.2c0-10.4,2-20.2,5.9-29.5c3.9-9.2,9.3-17.2,16.2-24   c6.8-6.8,14.8-12.2,24-16.1c9.2-3.9,18.9-5.9,29.2-5.9c11.1,0,21.3,2.2,30.7,6.5c9.4,4.3,17.6,10.3,24.6,17.8v-14.5   c0-2.8,1-5.2,2.9-7c1.9-1.8,4.3-2.8,7-2.8c2.7,0,5.1,0.9,7,2.8c1.9,1.8,2.9,4.2,2.9,7V293.1z M324,237.4c0,7.6,1.4,14.7,4.3,21.4   c2.9,6.7,6.8,12.5,11.8,17.5c4.9,5,10.8,9,17.5,11.9c6.7,2.9,14,4.4,21.8,4.4c7.8,0,15.1-1.5,21.8-4.4c6.7-2.9,12.6-6.9,17.5-11.9   c4.9-5,8.8-10.8,11.7-17.5c2.8-6.7,4.3-13.8,4.3-21.4c0-7.7-1.4-14.9-4.3-21.6s-6.7-12.6-11.7-17.6c-4.9-5-10.8-8.9-17.5-11.8   c-6.7-2.9-14-4.3-21.8-4.3c-7.7,0-14.9,1.4-21.6,4.3c-6.7,2.9-12.6,6.8-17.6,11.8c-5,5-8.9,10.9-11.8,17.6S324,229.7,324,237.4z"></path>		<path class="st0" d="M506.3,188.8c6.2-8,13.6-14.4,22-19.3c8.5-4.9,17.6-7.3,27.2-7.3c9.2,0,17.4,1.7,24.7,5.1   c7.3,3.4,13.6,8.3,18.8,14.6c5.2,6.3,9.2,14,12,22.9c2.8,8.9,4.2,18.9,4.2,30v0.2v66c0,2.8-0.9,5.2-2.8,7.1   c-1.9,1.9-4.3,2.8-7.1,2.8c-2.7,0-5.1-0.9-6.9-2.8c-1.9-1.9-2.8-4.3-2.8-7.1v-65.5v-0.5c0-17.1-3.7-30.2-11.1-39.3   c-7.4-9.2-17.7-13.7-30.9-13.7c-6.4,0-12.5,1.3-18.1,3.8c-5.6,2.5-10.6,6-14.8,10.5c-4.3,4.5-7.7,9.8-10.2,15.9   c-2.5,6.1-3.9,12.7-4.1,19.7v68.9c0,2.8-1,5.2-2.9,7.2c-2,2-4.3,2.9-7,2.9c-2.7,0-5.1-1-7-2.9c-2-1.9-2.9-4.3-2.9-7.2V118.7   c0-2.8,1-5.2,2.9-7.2c1.9-1.9,4.3-2.9,7-2.9c2.8,0,5.2,1,7.1,2.9c1.9,2,2.8,4.3,2.8,7.2V188.8z"></path>		<path class="st0" d="M679.6,162.1h21c2.8,0,5.2,0.9,7.1,2.8c1.9,1.9,2.8,4.2,2.8,6.9c0,2.9-0.9,5.4-2.8,7.3   c-1.9,1.9-4.3,2.8-7.1,2.8h-21v118.9c0,2.7-1,5.1-2.9,6.9c-1.9,1.9-4.3,2.8-7,2.8c-2.7,0-5.1-0.9-6.9-2.8   c-1.9-1.9-2.8-4.2-2.8-6.9V182h-17.4c-2.7,0-5.1-1-7-2.9c-1.9-1.9-2.9-4.3-2.9-7.2c0-2.7,1-5.1,2.9-6.9c1.9-1.9,4.3-2.8,7-2.8   h17.4v-43.7c0-2.8,0.9-5.2,2.8-7c1.9-1.8,4.2-2.8,6.9-2.8c2.7,0,5.1,0.9,7,2.8c1.9,1.8,2.9,4.2,2.9,7V162.1z"></path>	</g>	<path class="st0" d="M291.6,87.4c-1.2-5-3.5-9.9-6.5-14.5c18.1-0.5,36.1-1.8,54.1-5.4c-17.9-3.6-36-4.9-54.1-5.4  c3-4.6,5.2-9.6,6.5-14.5c-4.9,1.3-9.8,3.6-14.4,6.5c-0.5-18.1-1.8-36.1-5.4-54c-3.6,17.9-4.9,35.9-5.4,54c-4.6-3-9.5-5.3-14.4-6.5  c1.3,5,3.5,9.9,6.5,14.5c-18.1,0.5-36.2,1.8-54.1,5.4c17.9,3.6,36,4.9,54.1,5.4c-3,4.6-5.2,9.6-6.5,14.5c4.9-1.3,9.8-3.5,14.4-6.5  c0.5,18.1,1.8,36.1,5.4,54c3.6-17.9,4.9-35.9,5.4-54C281.8,83.8,286.7,86.1,291.6,87.4z"></path>	<path class="st0" d="M311.6,80.6c-2,6.2-3.2,13.3-3.5,20.4c-7.1,0.3-14.2,1.5-20.4,3.5c6.2,2,13.3,3.2,20.4,3.5  c0.3,7.1,1.4,14.2,3.5,20.4c2.1-6.2,3.2-13.3,3.5-20.4c7.1-0.3,14.2-1.4,20.4-3.5c-6.2-2.1-13.3-3.2-20.4-3.5  C314.9,93.9,313.7,86.8,311.6,80.6z"></path>	<g>		<path class="st0" d="M18.2,405.4h12.3c0.7,0,1.2,0.2,1.7,0.7c0.5,0.5,0.7,1,0.7,1.7c0,0.7-0.2,1.2-0.7,1.7c-0.5,0.4-1,0.6-1.7,0.6   H18.2v61c0,0.7-0.2,1.2-0.7,1.7c-0.5,0.4-1,0.6-1.7,0.6c-0.6,0-1.2-0.2-1.6-0.6c-0.5-0.4-0.7-1-0.7-1.7v-61H3.4   c-0.7,0-1.3-0.2-1.8-0.6c-0.5-0.4-0.7-1-0.7-1.7c0-0.7,0.2-1.2,0.7-1.7c0.5-0.5,1-0.7,1.8-0.7h10.1v-22.1c0-0.7,0.2-1.2,0.7-1.7   c0.5-0.4,1-0.6,1.6-0.6c0.7,0,1.2,0.2,1.7,0.6c0.5,0.4,0.7,1,0.7,1.7V405.4z"></path>		<path class="st0" d="M36.3,439.9c0-4.8,0.9-9.3,2.7-13.5c1.8-4.2,4.3-7.8,7.4-10.9c3.1-3.1,6.8-5.6,10.9-7.4   c4.2-1.8,8.6-2.7,13.4-2.7s9.2,0.9,13.3,2.7c4.1,1.8,7.8,4.2,10.9,7.3c3.1,3.1,5.6,6.7,7.4,10.9c1.8,4.2,2.7,8.6,2.8,13.4v0.3   v30.9c0,0.7-0.2,1.3-0.6,1.8c-0.4,0.5-1,0.7-1.7,0.7c-0.7,0-1.2-0.2-1.7-0.7c-0.4-0.5-0.6-1.1-0.6-1.8l-0.1-13.9   c-1.5,2.5-3.3,4.9-5.4,7c-2.1,2.1-4.4,3.9-6.9,5.4c-2.5,1.5-5.2,2.7-8.2,3.6c-2.9,0.9-6,1.3-9.1,1.3c-4.8,0-9.2-0.9-13.4-2.7   c-4.2-1.8-7.8-4.3-10.9-7.4c-3.1-3.1-5.6-6.8-7.4-10.9C37.2,449.1,36.3,444.7,36.3,439.9z M41,439.9c0,4,0.8,7.9,2.3,11.5   c1.5,3.6,3.6,6.8,6.3,9.4c2.7,2.7,5.8,4.8,9.4,6.4c3.6,1.6,7.5,2.4,11.7,2.4c3.9,0,7.6-0.7,11.1-2.1c3.4-1.4,6.5-3.3,9.1-5.7   c2.6-2.4,4.7-5.3,6.4-8.5c1.6-3.3,2.6-6.8,3-10.5c0-0.3,0-0.5,0.1-0.7c0-0.4,0-0.7,0-1c0-0.3,0-0.7,0-1c0-4.1-0.8-8-2.3-11.6   c-1.5-3.6-3.6-6.8-6.3-9.4c-2.7-2.7-5.8-4.8-9.4-6.4c-3.6-1.6-7.5-2.3-11.7-2.3c-4.1,0-8,0.8-11.6,2.3c-3.6,1.6-6.8,3.7-9.4,6.4   c-2.7,2.7-4.8,5.8-6.3,9.4C41.7,431.9,41,435.8,41,439.9z"></path>		<path class="st0" d="M124.2,471.1c0,0.7-0.2,1.2-0.6,1.7c-0.4,0.4-1,0.6-1.7,0.6c-0.7,0-1.2-0.2-1.7-0.6c-0.4-0.4-0.6-1-0.6-1.7   v-87.7c0-0.7,0.2-1.2,0.6-1.7c0.4-0.4,1-0.6,1.7-0.6c0.7,0,1.2,0.2,1.7,0.6c0.4,0.4,0.6,1,0.6,1.7V471.1z"></path>		<path class="st0" d="M139.7,442.1c0.2,3.8,1.1,7.5,2.7,10.8c1.6,3.4,3.7,6.3,6.3,8.8c2.6,2.5,5.7,4.4,9.1,5.9   c3.5,1.4,7.1,2.2,11,2.2c2.2,0,4.4-0.3,6.6-0.8c2.2-0.5,4.2-1.2,6.2-2.1c1.9-0.9,3.8-2,5.4-3.3c1.7-1.3,3.1-2.8,4.4-4.4   c0.8-0.7,1.5-1,2.3-0.7c0.4,0.1,0.7,0.4,0.9,0.8c0.4,0.4,0.7,0.9,0.8,1.6c0.1,0.6-0.2,1.3-0.8,1.8c-3,3.5-6.6,6.3-11,8.4   c-4.3,2.2-9.2,3.2-14.7,3.2c-4.8,0-9.2-0.9-13.4-2.7c-4.2-1.8-7.8-4.3-10.9-7.4s-5.6-6.7-7.4-10.9c-1.8-4.2-2.7-8.7-2.7-13.4   c0-4.8,0.9-9.2,2.7-13.4c1.8-4.2,4.3-7.8,7.4-10.9s6.7-5.6,10.9-7.4c4.2-1.8,8.6-2.7,13.4-2.7c4.8,0,9.2,0.9,13.4,2.7   c4.2,1.8,7.8,4.3,10.9,7.4c3.1,3.1,5.6,6.7,7.4,10.9c1.8,4.2,2.7,8.6,2.7,13.3c0,0.6-0.2,1.2-0.6,1.6c-0.4,0.5-1,0.7-1.6,0.7   H139.7z M198.6,438c-0.2-3.9-1.1-7.5-2.7-11c-1.6-3.4-3.8-6.4-6.4-8.9c-2.6-2.5-5.7-4.5-9.2-6c-3.5-1.5-7.2-2.2-11.2-2.2   c-4,0-7.7,0.7-11.2,2.2c-3.5,1.5-6.6,3.5-9.2,6c-2.6,2.5-4.8,5.5-6.3,8.9c-1.6,3.4-2.5,7-2.7,10.9H198.6z"></path>		<path class="st0" d="M270.8,471c0,0.7-0.2,1.2-0.6,1.7c-0.4,0.5-1,0.7-1.7,0.7c-0.7,0-1.2-0.2-1.7-0.7c-0.4-0.5-0.6-1-0.6-1.7   v-32.2v-0.2v-0.3c0-9.3-2-16.3-6-21c-3.9-4.7-9.4-7.1-16.3-7.1c-3.5,0-6.8,0.7-9.9,2.2c-3.1,1.4-5.8,3.4-8.1,6   c-2.3,2.5-4.1,5.5-5.5,8.9c-1.3,3.4-2,7.1-2,11v32.7c0,0.7-0.2,1.3-0.7,1.7c-0.5,0.5-1,0.7-1.6,0.7c-0.7,0-1.2-0.2-1.7-0.7   c-0.5-0.5-0.7-1.1-0.7-1.7v-63c0-0.7,0.2-1.3,0.6-1.7c0.4-0.5,1-0.7,1.7-0.7c0.7,0,1.2,0.2,1.7,0.7c0.5,0.5,0.7,1.1,0.7,1.7v14.6   c1.3-2.5,2.9-4.8,4.7-6.9c1.9-2.1,3.9-3.9,6.1-5.4c2.2-1.5,4.6-2.7,7.2-3.5c2.5-0.8,5.2-1.3,7.9-1.3c4.1,0,7.8,0.7,11.1,2.2   c3.3,1.5,6,3.6,8.3,6.4c2.3,2.8,4,6.3,5.3,10.4c1.2,4.1,1.8,8.8,1.8,14v0.1V471z"></path>		<path class="st0" d="M295.6,405.4h12.3c0.7,0,1.2,0.2,1.7,0.7c0.5,0.5,0.7,1,0.7,1.7c0,0.7-0.2,1.2-0.7,1.7   c-0.5,0.4-1,0.6-1.7,0.6h-12.3v61c0,0.7-0.2,1.2-0.7,1.7c-0.5,0.4-1,0.6-1.7,0.6c-0.6,0-1.2-0.2-1.6-0.6c-0.5-0.4-0.7-1-0.7-1.7   v-61h-10.1c-0.7,0-1.3-0.2-1.8-0.6c-0.5-0.4-0.7-1-0.7-1.7c0-0.7,0.2-1.2,0.7-1.7c0.5-0.5,1-0.7,1.8-0.7h10.1v-22.1   c0-0.7,0.2-1.2,0.7-1.7c0.5-0.4,1-0.6,1.6-0.6c0.7,0,1.2,0.2,1.7,0.6c0.5,0.4,0.7,1,0.7,1.7V405.4z"></path>		<path class="st0" d="M350.3,389.9c0-1,0.3-1.8,1-2.5c0.6-0.6,1.5-1,2.4-1c1,0,1.9,0.3,2.5,1c0.7,0.6,1,1.5,1,2.5   c0,0.9-0.3,1.7-1,2.4c-0.7,0.7-1.5,1-2.5,1c-1,0-1.8-0.3-2.4-1C350.6,391.6,350.3,390.8,350.3,389.9z M356,470.9   c0,0.7-0.2,1.3-0.7,1.7c-0.5,0.5-1,0.7-1.6,0.7c-0.7,0-1.2-0.2-1.7-0.7c-0.5-0.5-0.7-1.1-0.7-1.7v-63c0-0.7,0.2-1.3,0.6-1.7   c0.4-0.5,1-0.7,1.7-0.7c0.7,0,1.2,0.2,1.7,0.7c0.5,0.5,0.7,1.1,0.7,1.7V470.9z"></path>		<path class="st0" d="M427.5,471c0,0.7-0.2,1.2-0.6,1.7c-0.4,0.5-1,0.7-1.7,0.7c-0.7,0-1.2-0.2-1.7-0.7c-0.4-0.5-0.6-1-0.6-1.7   v-32.2v-0.2v-0.3c0-9.3-2-16.3-6-21c-3.9-4.7-9.4-7.1-16.3-7.1c-3.5,0-6.8,0.7-9.9,2.2c-3.1,1.4-5.8,3.4-8.1,6   c-2.3,2.5-4.1,5.5-5.5,8.9c-1.3,3.4-2,7.1-2,11v32.7c0,0.7-0.2,1.3-0.7,1.7c-0.5,0.5-1,0.7-1.6,0.7c-0.7,0-1.2-0.2-1.7-0.7   c-0.5-0.5-0.7-1.1-0.7-1.7v-63c0-0.7,0.2-1.3,0.6-1.7c0.4-0.5,1-0.7,1.7-0.7c0.7,0,1.2,0.2,1.7,0.7c0.5,0.5,0.7,1.1,0.7,1.7v14.6   c1.3-2.5,2.9-4.8,4.7-6.9c1.9-2.1,3.9-3.9,6.1-5.4c2.2-1.5,4.6-2.7,7.2-3.5c2.5-0.8,5.2-1.3,7.9-1.3c4.1,0,7.8,0.7,11.1,2.2   c3.3,1.5,6,3.6,8.3,6.4c2.3,2.8,4,6.3,5.3,10.4c1.2,4.1,1.8,8.8,1.8,14v0.1V471z"></path>		<path class="st0" d="M458.1,440.1c-2.5-0.7-4.8-1.6-7.1-2.5c-2.3-1-4.4-2.1-6.1-3.5c-1.8-1.4-3.2-3-4.3-4.9   c-1.1-1.9-1.6-4.2-1.6-6.8c0-2.9,0.6-5.4,1.9-7.5c1.3-2.1,2.9-3.9,5-5.3c2-1.4,4.3-2.4,6.9-3.1c2.5-0.7,5-1,7.5-1   c4.3,0,8.2,0.8,11.6,2.5c3.4,1.7,6,4.2,7.9,7.7c0.6,1.1,0.5,1.9-0.2,2.5c-0.4,0.3-0.8,0.5-1.3,0.6c-0.5,0.1-0.9,0-1.3-0.3   c-2.1-3.1-4.5-5.4-7.1-6.7c-2.6-1.3-5.7-2-9.3-2c-1.9,0-3.8,0.2-5.8,0.6c-2,0.4-3.8,1.1-5.4,2.1c-1.7,1-3,2.3-4.1,3.9   c-1.1,1.6-1.6,3.6-1.6,6c0,2.1,0.4,3.8,1.3,5.3c0.9,1.5,2,2.7,3.5,3.8c1.4,1.1,3.1,2,5,2.7c1.9,0.7,3.9,1.4,5.9,2   c3.2,1,6.3,2,9.2,3c2.9,1.1,5.5,2.3,7.7,3.8c2.2,1.5,4,3.2,5.3,5.2c1.3,2,1.9,4.5,1.9,7.4c0,2.7-0.6,5.2-1.8,7.5   c-1.2,2.3-2.8,4.3-4.9,6c-2.1,1.7-4.5,3-7.3,3.9c-2.8,0.9-5.7,1.4-8.8,1.4c-5.2,0-9.8-1-13.9-3c-4.1-2-7-4.9-8.9-8.7   c-0.4-0.7-0.5-1.3-0.3-1.8s0.5-0.9,1-1.2c0.5-0.2,1-0.3,1.6-0.2c0.6,0.1,1.1,0.5,1.6,1.1c1.8,3.3,4.3,5.7,7.5,7.3   c3.1,1.5,7,2.3,11.5,2.3c2.3,0,4.6-0.3,6.7-1c2.2-0.7,4.1-1.7,5.8-3c1.7-1.3,3-2.8,4-4.6c1-1.8,1.5-3.8,1.5-5.9   c0-2.2-0.5-4-1.6-5.6c-1.1-1.6-2.5-3-4.4-4.1c-1.9-1.2-4.1-2.2-6.6-3.1C463.8,441.7,461,440.9,458.1,440.1z"></path>		<path class="st0" d="M492.8,389.9c0-1,0.3-1.8,1-2.5c0.6-0.6,1.5-1,2.4-1c1,0,1.9,0.3,2.5,1c0.7,0.6,1,1.5,1,2.5   c0,0.9-0.3,1.7-1,2.4c-0.7,0.7-1.5,1-2.5,1c-1,0-1.8-0.3-2.4-1C493.1,391.6,492.8,390.8,492.8,389.9z M498.6,470.9   c0,0.7-0.2,1.3-0.7,1.7c-0.5,0.5-1,0.7-1.6,0.7c-0.7,0-1.2-0.2-1.7-0.7c-0.5-0.5-0.7-1.1-0.7-1.7v-63c0-0.7,0.2-1.3,0.6-1.7   c0.4-0.5,1-0.7,1.7-0.7c0.7,0,1.2,0.2,1.7,0.7c0.5,0.5,0.7,1.1,0.7,1.7V470.9z"></path>		<path class="st0" d="M577.5,464.7v0.3v0.1c0,5.3-1,10.1-2.7,14.4c-1.8,4.3-4.2,8-7.2,11c-3.1,3.1-6.6,5.4-10.7,7.1   c-4.1,1.7-8.4,2.5-13.1,2.5c-2.2,0-4.3-0.2-6.5-0.6c-2.1-0.4-4.2-1-6.2-1.8c-2-0.8-3.8-1.7-5.6-2.8c-1.8-1.1-3.3-2.4-4.7-3.8   c-0.6-0.6-0.9-1.2-0.9-1.9c0-0.7,0.3-1.3,0.8-1.7c0.7-0.6,1.4-0.8,2-0.6c0.6,0.2,1.2,0.5,1.7,1c2.6,2.5,5.6,4.4,9,5.7   c3.4,1.3,6.9,1.9,10.6,1.8c4,0,7.7-0.7,11.3-2.2c3.5-1.5,6.6-3.5,9.2-6.2c2.6-2.7,4.6-5.9,6.1-9.6c1.5-3.8,2.2-7.9,2.2-12.6v-7.4   c-1.5,2.5-3.3,4.9-5.3,7c-2.1,2.1-4.4,3.9-6.9,5.4c-2.5,1.5-5.3,2.6-8.2,3.5c-2.9,0.8-6,1.2-9.2,1.2c-4.8,0-9.2-0.9-13.4-2.7   s-7.8-4.3-10.9-7.4c-3.1-3.1-5.6-6.8-7.4-10.9c-1.8-4.2-2.7-8.6-2.7-13.4c0-4.8,0.9-9.3,2.7-13.5c1.8-4.2,4.3-7.8,7.4-10.9   c3.1-3.1,6.8-5.6,10.9-7.4c4.2-1.8,8.6-2.7,13.4-2.7c3.2,0,6.2,0.4,9.2,1.2c2.9,0.8,5.7,2,8.2,3.5c2.5,1.5,4.9,3.3,6.9,5.4   c2.1,2.1,3.8,4.4,5.3,7v-14.7c0-0.7,0.2-1.2,0.7-1.7c0.5-0.4,1-0.6,1.6-0.6c0.7,0,1.2,0.2,1.7,0.6c0.5,0.4,0.7,1,0.7,1.7V464.7z    M513.4,439.9c0,4,0.8,7.9,2.3,11.5c1.5,3.6,3.6,6.8,6.3,9.4c2.7,2.7,5.8,4.8,9.4,6.4c3.6,1.6,7.5,2.4,11.7,2.4   c4.2,0,8.1-0.8,11.7-2.4c3.6-1.6,6.8-3.7,9.4-6.4c2.6-2.7,4.7-5.8,6.2-9.4c1.5-3.6,2.3-7.4,2.3-11.5c0-4.1-0.8-8-2.3-11.6   c-1.5-3.6-3.6-6.8-6.3-9.4c-2.7-2.7-5.8-4.8-9.4-6.4c-3.6-1.6-7.5-2.3-11.7-2.3c-4.1,0-8,0.8-11.6,2.3c-3.6,1.6-6.8,3.7-9.4,6.4   c-2.7,2.7-4.8,5.8-6.3,9.4C514.2,431.9,513.4,435.8,513.4,439.9z"></path>		<path class="st0" d="M649.2,439v32c0,0.7-0.2,1.2-0.6,1.7c-0.4,0.5-1,0.7-1.7,0.7c-0.7,0-1.2-0.2-1.7-0.7c-0.4-0.5-0.6-1-0.6-1.7   v-32.5v-0.3c0-9.3-2-16.3-6-21c-3.9-4.7-9.4-7.1-16.3-7.1c-3.5,0-6.8,0.7-9.9,2.2c-3.1,1.4-5.8,3.4-8.1,6   c-2.3,2.5-4.1,5.5-5.5,8.9c-1.3,3.4-2,7.1-2,11v32.7c0,0.7-0.2,1.3-0.7,1.7c-0.5,0.5-1,0.7-1.6,0.7c-0.7,0-1.2-0.2-1.7-0.7   c-0.5-0.5-0.7-1.1-0.7-1.7v-87.4c0-0.7,0.2-1.3,0.7-1.7c0.5-0.5,1-0.7,1.7-0.7c0.7,0,1.2,0.2,1.7,0.7c0.4,0.5,0.6,1.1,0.6,1.7v39   c1.3-2.5,2.9-4.8,4.7-6.9c1.9-2.1,3.9-3.9,6.1-5.4c2.2-1.5,4.6-2.7,7.2-3.5s5.2-1.3,7.9-1.3c4.1,0,7.8,0.7,11.1,2.2   c3.3,1.5,6.1,3.6,8.4,6.4s4,6.3,5.3,10.3c1.2,4.1,1.8,8.7,1.8,14v0.1V439z"></path>		<path class="st0" d="M674.3,405.4h12.3c0.7,0,1.2,0.2,1.7,0.7c0.5,0.5,0.7,1,0.7,1.7c0,0.7-0.2,1.2-0.7,1.7   c-0.5,0.4-1,0.6-1.7,0.6h-12.3v61c0,0.7-0.2,1.2-0.7,1.7c-0.5,0.4-1,0.6-1.7,0.6c-0.6,0-1.2-0.2-1.6-0.6c-0.5-0.4-0.7-1-0.7-1.7   v-61h-10.1c-0.7,0-1.3-0.2-1.8-0.6c-0.5-0.4-0.7-1-0.7-1.7c0-0.7,0.2-1.2,0.7-1.7c0.5-0.5,1-0.7,1.8-0.7h10.1v-22.1   c0-0.7,0.2-1.2,0.7-1.7c0.5-0.4,1-0.6,1.6-0.6c0.7,0,1.2,0.2,1.7,0.6c0.5,0.4,0.7,1,0.7,1.7V405.4z"></path>	</g></g></svg>